<svg width="60" height="50" viewBox="0 0 60 50" fill="none" xmlns="http://www.w3.org/2000/svg">
<g clip-path="url(#clip0_18_162)">
<path d="M10.5 0C8.01562 0 6 2.09961 6 4.6875V9.375H1.5C0.675 9.375 0 10.0781 0 10.9375C0 11.7969 0.675 12.5 1.5 12.5H6H25.5C26.325 12.5 27 13.2031 27 14.0625C27 14.9219 26.325 15.625 25.5 15.625H6H4.5C3.675 15.625 3 16.3281 3 17.1875C3 18.0469 3.675 18.75 4.5 18.75H6H22.5C23.325 18.75 24 19.4531 24 20.3125C24 21.1719 23.325 21.875 22.5 21.875H6H1.5C0.675 21.875 0 22.5781 0 23.4375C0 24.2969 0.675 25 1.5 25H6H19.5C20.325 25 21 25.7031 21 26.5625C21 27.4219 20.325 28.125 19.5 28.125H6V40.625C6 45.8008 10.0312 50 15 50C19.9688 50 24 45.8008 24 40.625H36C36 45.8008 40.0312 50 45 50C49.9688 50 54 45.8008 54 40.625H57C58.6594 40.625 60 39.2285 60 37.5C60 35.7715 58.6594 34.375 57 34.375V28.125V25V23.1738C57 21.5137 56.3719 19.9219 55.2469 18.75L48 11.2012C46.875 10.0293 45.3469 9.375 43.7531 9.375H39V4.6875C39 2.09961 36.9844 0 34.5 0H10.5ZM51 23.1738V25H39V15.625H43.7531L51 23.1738ZM15 35.9375C16.1935 35.9375 17.3381 36.4314 18.182 37.3104C19.0259 38.1895 19.5 39.3818 19.5 40.625C19.5 41.8682 19.0259 43.0605 18.182 43.9396C17.3381 44.8186 16.1935 45.3125 15 45.3125C13.8065 45.3125 12.6619 44.8186 11.818 43.9396C10.9741 43.0605 10.5 41.8682 10.5 40.625C10.5 39.3818 10.9741 38.1895 11.818 37.3104C12.6619 36.4314 13.8065 35.9375 15 35.9375ZM40.5 40.625C40.5 39.3818 40.9741 38.1895 41.818 37.3104C42.6619 36.4314 43.8065 35.9375 45 35.9375C46.1935 35.9375 47.3381 36.4314 48.182 37.3104C49.0259 38.1895 49.5 39.3818 49.5 40.625C49.5 41.8682 49.0259 43.0605 48.182 43.9396C47.3381 44.8186 46.1935 45.3125 45 45.3125C43.8065 45.3125 42.6619 44.8186 41.818 43.9396C40.9741 43.0605 40.5 41.8682 40.5 40.625Z" fill="white"/>
</g>
<defs>
<clipPath id="clip0_18_162">
<rect width="60" height="50" rx="10" fill="white"/>
</clipPath>
</defs>
</svg>
