<svg width="50" height="50" viewBox="0 0 50 50" fill="none" xmlns="http://www.w3.org/2000/svg">
<g clip-path="url(#clip0_18_176)">
<path d="M0.400391 3.73047C0.136719 3.33984 0 2.87109 0 2.40234C0 1.07422 1.07422 0 2.40234 0H13.0762C14.1699 0 15.1953 0.576172 15.752 1.51367L22.4414 12.6563C17.7344 13.252 13.5254 15.4492 10.3906 18.7012L0.400391 3.73047ZM49.5898 3.73047L39.6094 18.7012C36.4746 15.4492 32.2656 13.252 27.5586 12.6563L34.248 1.51367C34.8145 0.576172 35.8301 0 36.9238 0H47.5977C48.9258 0 50 1.07422 50 2.40234C50 2.87109 49.8633 3.33984 49.5996 3.73047H49.5898ZM7.8125 32.8125C7.8125 28.2541 9.62332 23.8824 12.8466 20.6591C16.0699 17.4358 20.4416 15.625 25 15.625C29.5584 15.625 33.9301 17.4358 37.1534 20.6591C40.3767 23.8824 42.1875 28.2541 42.1875 32.8125C42.1875 37.3709 40.3767 41.7426 37.1534 44.9659C33.9301 48.1892 29.5584 50 25 50C20.4416 50 16.0699 48.1892 12.8466 44.9659C9.62332 41.7426 7.8125 37.3709 7.8125 32.8125ZM25.8203 23.5449C25.4883 22.8613 24.5215 22.8613 24.1797 23.5449L21.9922 27.9785C21.8555 28.252 21.6016 28.4375 21.3086 28.4766L16.4062 29.1895C15.6543 29.2969 15.3613 30.2148 15.8984 30.752L19.4434 34.209C19.6582 34.4238 19.7559 34.7168 19.707 35.0195L18.8672 39.8926C18.7402 40.6348 19.5215 41.2109 20.1953 40.8594L24.5703 38.5547C24.834 38.418 25.1562 38.418 25.4199 38.5547L29.7949 40.8594C30.4688 41.2109 31.25 40.6445 31.123 39.8926L30.2832 35.0195C30.2344 34.7266 30.332 34.4238 30.5469 34.209L34.0918 30.752C34.6387 30.2246 34.3359 29.3066 33.584 29.1895L28.6914 28.4766C28.3984 28.4375 28.1348 28.2422 28.0078 27.9785L25.8203 23.5449Z" fill="white"/>
</g>
<defs>
<clipPath id="clip0_18_176">
<rect width="50" height="50" fill="white"/>
</clipPath>
</defs>
</svg>
