<svg width="58" height="50" viewBox="0 0 58 50" fill="none" xmlns="http://www.w3.org/2000/svg">
<g clip-path="url(#clip0_64_21)">
<path d="M32.0038 21.5723C30.5878 19.8535 29.8749 17.7441 29.8749 15.6348C29.8749 7.8125 39.2499 0 48.6249 0C53.8007 0 57.9999 4.19922 57.9999 9.375C57.9999 18.75 50.1874 28.125 42.3553 28.125C40.246 28.125 38.1366 27.4121 36.4178 25.9961L13.3319 49.082C12.1112 50.3027 10.1288 50.3027 8.90808 49.082C7.68738 47.8613 7.68738 45.8789 8.90808 44.6582L32.0038 21.5723Z" fill="white"/>
</g>
<g clip-path="url(#clip1_64_21)">
<path d="M25.9962 21.5723C27.4122 19.8535 28.1251 17.7441 28.1251 15.6348C28.1251 7.8125 18.7501 0 9.37512 0C4.19934 0 0.000120878 4.19922 0.000120878 9.375C0.000120878 18.75 7.81262 28.125 15.6447 28.125C17.754 28.125 19.8634 27.4121 21.5822 25.9961L44.6681 49.082C45.8888 50.3027 47.8712 50.3027 49.0919 49.082C50.3126 47.8613 50.3126 45.8789 49.0919 44.6582L25.9962 21.5723Z" fill="white"/>
</g>
<defs>
<clipPath id="clip0_64_21">
<rect width="50" height="50" fill="white" transform="translate(8)"/>
</clipPath>
<clipPath id="clip1_64_21">
<rect width="50" height="50" fill="white" transform="matrix(-1 0 0 1 50 0)"/>
</clipPath>
</defs>
</svg>
